<svg xmlns="http://www.w3.org/2000/svg" 
	 viewBox="0 0 200 50" width="200" height="50" xml:space="preserve">
<style type="text/css">.st0{fill:#404041;}.st1{fill:#37B34A;}#small{display:none}@media screen and (max-width: 199px){#big{display:none}#small{display:block}}</style>
<path id="big" class="st0" d="M136.1,27.1c-0.1-0.3-0.2-0.6-0.3-0.8c-0.2-0.2-0.4-0.4-0.6-0.5c-0.3-0.1-0.6-0.2-0.9-0.2
	c-0.6,0-1.1,0.2-1.5,0.6c-0.4,0.4-0.5,1-0.5,1.7c0,0.4,0.1,0.7,0.2,1c0.1,0.3,0.2,0.6,0.4,0.8c0.2,0.2,0.3,0.4,0.6,0.5
	c0.3,0.1,0.6,0.2,0.9,0.2c0.6,0,1.1-0.2,1.5-0.6c0.4-0.4,0.5-1,0.5-1.8C136.2,27.7,136.2,27.4,136.1,27.1z M134.3,29.8
	c-0.2,0-0.4-0.1-0.6-0.2c-0.2-0.1-0.3-0.3-0.4-0.4c-0.1-0.2-0.2-0.3-0.2-0.5c-0.1-0.2-0.1-0.5-0.1-0.7c0-1.2,0.4-1.7,1.2-1.7
	c0.2,0,0.4,0.1,0.6,0.2c0.2,0.1,0.3,0.2,0.4,0.4c0.1,0.2,0.2,0.3,0.2,0.5c0.1,0.2,0.1,0.4,0.1,0.7C135.5,29.2,135.1,29.8,134.3,29.8
	z M137.7,27.7c-0.1,0.5-0.1,0.9-0.2,1.2c-0.1,0.3-0.2,0.5-0.3,0.6c-0.1,0.1-0.2,0.2-0.3,0.2c-0.1,0-0.2,0-0.2-0.1l-0.2,0.6
	c0.1,0.1,0.2,0.1,0.2,0.1c0.1,0,0.2,0.1,0.3,0.1c0.2,0,0.4-0.1,0.5-0.2c0.2-0.1,0.3-0.3,0.4-0.5s0.2-0.5,0.2-0.7
	c0.1-0.3,0.1-0.6,0.2-0.9c0.1-0.3,0.1-0.6,0.1-0.9c0-0.3,0.1-0.6,0.1-0.8h1.3v3.9h0.8v-4.5h-2.7C137.8,26.6,137.8,27.2,137.7,27.7z
	 M142.9,28.5l-0.4,0.6v-0.6v-2.7h-0.7v4.5h0.4l2-2.6l0.4-0.6h0.1l-0.1,0.6v2.6h0.7v-4.5H145L142.9,28.5z M127.8,30.3h0.7v-3.9h2v3.9
	h0.7v-4.5h-3.4V30.3z M146.1,26.4h1.4v3.9h0.8v-3.9h1.4v-0.6h-3.5V26.4z M116.6,13.8V3.4H113v16.9h3.4l6.7-10.4v10.4h3.6V3.4h-3.4
	L116.6,13.8z M153.8,27.4c0-0.4-0.1-0.7-0.2-0.9c-0.1-0.3-0.3-0.5-0.4-0.6c-0.2-0.1-0.4-0.2-0.6-0.2c-0.2-0.1-0.4-0.1-0.6-0.1
	c-0.6,0-1.1,0.2-1.5,0.6c-0.4,0.4-0.5,1-0.5,1.7c0,0.4,0.1,0.7,0.2,1c0.1,0.3,0.2,0.6,0.4,0.8c0.2,0.2,0.4,0.4,0.6,0.5
	c0.3,0.1,0.6,0.2,0.9,0.2c0.3,0,0.6,0,0.9-0.1c0.3-0.1,0.5-0.2,0.7-0.4l-0.3-0.5c-0.1,0.1-0.3,0.2-0.5,0.3c-0.2,0.1-0.4,0.1-0.6,0.1
	c-0.3,0-0.5,0-0.7-0.1c-0.2-0.1-0.3-0.2-0.5-0.4c-0.1-0.2-0.2-0.3-0.2-0.5c-0.1-0.2-0.1-0.5-0.1-0.7h2.9
	C153.8,27.8,153.8,27.6,153.8,27.4z M150.8,27.5c0.1-0.5,0.2-0.8,0.4-0.9c0.2-0.2,0.5-0.3,0.9-0.3c0.3,0,0.6,0.2,0.7,0.3
	c0.2,0.2,0.3,0.5,0.3,0.9H150.8z M112.8,27.9l0.4-0.3l1.4-1.8h-0.8l-1.5,1.9l-0.4,0.1v-2h-0.8v4.5h0.8v-2h0.4l1.5,2h0.9l-1.5-2
	L112.8,27.9z M116.7,28.5l-0.4,0.6h-0.1l0.1-0.6v-2.7h-0.8v4.5h0.5l2-2.6l0.4-0.6v0.6v2.6h0.7v-4.5h-0.5L116.7,28.5z M121.4,25
	c0.1,0.1,0.3,0.2,0.5,0.2c0.2,0.1,0.3,0.1,0.5,0.1c0.4,0,0.6-0.1,0.9-0.3c0.3-0.2,0.5-0.5,0.5-0.8l-0.6-0.2
	c-0.1,0.3-0.1,0.4-0.3,0.5s-0.4,0.2-0.5,0.2c-0.2,0-0.4,0-0.5-0.2c-0.2-0.1-0.3-0.3-0.3-0.6l-0.6,0.2c0.1,0.2,0.1,0.3,0.2,0.5
	C121.2,24.8,121.3,24.9,121.4,25z M121.6,28.5l-0.3,0.6h-0.1v-0.6v-2.7h-0.7v4.5h0.4l2-2.6l0.4-0.6h0.1l-0.1,0.6v2.6h0.7v-4.5h-0.4
	L121.6,28.5z M194.4,25.8l-2,2.7l-0.4,0.6h-0.1v-0.6v-2.7h-0.7v4.5h0.5l2-2.6l0.4-0.6h0.1l-0.1,0.6v2.6h0.8v-4.5H194.4z M183.8,27.9
	l0.4-0.3l1.4-1.8h-0.8l-1.4,1.9l-0.4,0.1v-2h-0.7v4.5h0.7v-2h0.4l1.5,2h0.9l-1.5-2L183.8,27.9z M180.6,29.7
	c-0.2,0.1-0.4,0.1-0.6,0.1c-0.3,0-0.5-0.1-0.6-0.2s-0.3-0.3-0.4-0.4c-0.1-0.2-0.2-0.3-0.2-0.5s-0.1-0.5-0.1-0.7
	c0-1.2,0.5-1.7,1.3-1.7c0.2,0,0.4,0.1,0.5,0.1c0.2,0.1,0.4,0.1,0.5,0.2l0.2-0.6c-0.2-0.1-0.4-0.2-0.5-0.2c-0.2-0.1-0.5-0.1-0.8-0.1
	c-0.6,0-1.1,0.2-1.4,0.6s-0.5,1-0.5,1.7c0,0.4,0.1,0.7,0.2,1c0.1,0.3,0.2,0.6,0.3,0.8s0.4,0.4,0.6,0.5c0.3,0.1,0.5,0.2,0.9,0.2
	c0.3,0,0.6,0,0.8-0.1c0.3-0.1,0.5-0.2,0.6-0.3l-0.2-0.5C180.9,29.5,180.8,29.6,180.6,29.7z M187.6,28.5l-0.4,0.6h-0.1l0.1-0.6v-2.7
	h-0.8v4.5h0.5l2-2.6l0.4-0.6v0.6v2.6h0.7v-4.5h-0.5L187.6,28.5z M109.6,29.7c-0.2,0.1-0.4,0.1-0.6,0.1c-0.3,0-0.5-0.1-0.6-0.2
	c-0.2-0.1-0.3-0.3-0.4-0.4c-0.1-0.2-0.2-0.3-0.2-0.5c-0.1-0.2-0.1-0.5-0.1-0.7c0-1.2,0.5-1.7,1.3-1.7c0.2,0,0.4,0.1,0.5,0.1
	c0.2,0.1,0.3,0.1,0.5,0.2l0.2-0.6c-0.2-0.1-0.4-0.2-0.5-0.2c-0.2-0.1-0.5-0.1-0.8-0.1c-0.6,0-1.1,0.2-1.4,0.6s-0.5,1-0.5,1.7
	c0,0.4,0.1,0.7,0.2,1c0.1,0.3,0.2,0.6,0.3,0.8c0.2,0.2,0.4,0.4,0.6,0.5c0.3,0.1,0.6,0.2,0.9,0.2c0.3,0,0.6,0,0.8-0.1
	c0.3-0.1,0.5-0.2,0.6-0.3l-0.2-0.5C110,29.5,109.8,29.6,109.6,29.7z M179.8,25.7L179.8,25.7L179.8,25.7z M171.5,27.8
	c-0.1,0.1-0.2,0.1-0.4,0.2c-0.2,0.1-0.4,0.1-0.7,0.1c-0.2,0-0.3-0.1-0.4-0.1c-0.1-0.1-0.2-0.2-0.2-0.2c-0.1-0.1-0.1-0.2-0.2-0.3
	c0-0.2-0.1-0.3-0.1-0.5v-1.2h-0.7l0,0v1.3c0,0.3,0.1,0.6,0.1,0.8c0.1,0.2,0.2,0.4,0.3,0.5c0.1,0.1,0.3,0.2,0.4,0.3
	c0.2,0.1,0.4,0.1,0.6,0.1c0.3,0,0.6,0,0.8-0.1c0.2-0.1,0.4-0.2,0.5-0.2v1.9h0.7v-4.5h-0.7L171.5,27.8L171.5,27.8z M162.2,27.7h-2
	v-1.9h-0.7v4.5h0.7v-2h2v2h0.7v-4.5h-0.7V27.7z M165.4,28.5l-0.3,0.6H165v-0.6v-2.7h-0.7v4.5h0.4l2-2.6l0.4-0.6h0.1l-0.1,0.6v2.6
	h0.8v-4.5h-0.5L165.4,28.5z M158.4,25.8h-0.8l-0.8,1.2l-0.3,0.5l-0.3-0.5l-0.8-1.2h-0.9l1.5,2.2l-1.6,2.3h0.8l1-1.4l0.3-0.6l0.3,0.6
	l0.9,1.4h0.9l-1.6-2.3L158.4,25.8z M171.1,11.5l5.1-8.1H172l-3.1,5.2l-3.1-5.2h-4.3l5.2,8.1l-5.6,8.8h4.2l3.6-5.9l3.6,5.9h4.3
	L171.1,11.5z M177,27.4c0-0.4-0.1-0.7-0.2-0.9c-0.1-0.3-0.3-0.5-0.4-0.6c-0.2-0.1-0.3-0.2-0.5-0.2c-0.2-0.1-0.4-0.1-0.6-0.1
	c-0.7,0-1.1,0.2-1.5,0.6c-0.4,0.4-0.5,1-0.5,1.7c0,0.4,0,0.7,0.1,1c0.1,0.3,0.2,0.6,0.4,0.8c0.2,0.2,0.4,0.4,0.6,0.5
	c0.3,0.1,0.6,0.2,0.9,0.2c0.3,0,0.6,0,0.9-0.1s0.5-0.2,0.7-0.4l-0.3-0.5c-0.1,0.1-0.3,0.2-0.5,0.3c-0.2,0.1-0.4,0.1-0.6,0.1
	c-0.3,0-0.5,0-0.7-0.1c-0.2-0.1-0.3-0.2-0.5-0.4c-0.1-0.2-0.2-0.3-0.3-0.5c-0.1-0.2-0.1-0.5-0.1-0.7h2.9C177,27.8,177,27.6,177,27.4
	z M174.1,27.5c0.1-0.5,0.2-0.8,0.4-0.9c0.2-0.2,0.5-0.3,0.9-0.3c0.3,0,0.6,0.2,0.8,0.3c0.2,0.2,0.3,0.5,0.3,0.9H174.1z M192.3,25
	c0.1,0.1,0.3,0.2,0.5,0.2c0.2,0.1,0.3,0.1,0.5,0.1c0.4,0,0.6-0.1,0.9-0.3c0.3-0.2,0.5-0.5,0.5-0.8l-0.5-0.2
	c-0.1,0.3-0.2,0.4-0.3,0.5s-0.4,0.2-0.5,0.2c-0.2,0-0.4,0-0.5-0.2c-0.2-0.1-0.3-0.3-0.3-0.6l-0.6,0.2c0.1,0.2,0.1,0.3,0.2,0.5
	C192.1,24.8,192.2,24.9,192.3,25z M103,26.4h1.4v3.9h0.7v-3.9h1.4v-0.6H103V26.4z M65.9,38.3c-0.1-0.3-0.2-0.6-0.4-0.8
	c-0.2-0.2-0.4-0.4-0.6-0.5c-0.3-0.1-0.5-0.2-0.9-0.2c-0.6,0-1.1,0.2-1.5,0.6c-0.4,0.4-0.5,1-0.5,1.8c0,0.4,0.1,0.7,0.2,0.9
	c0.1,0.3,0.2,0.6,0.4,0.8c0.2,0.2,0.4,0.4,0.6,0.5c0.3,0.1,0.6,0.2,0.9,0.2c0.6,0,1.1-0.2,1.5-0.6c0.4-0.4,0.5-1,0.5-1.7
	C66.1,38.9,66,38.6,65.9,38.3z M64.1,40.9c-0.2,0-0.4-0.1-0.6-0.2c-0.2-0.1-0.3-0.2-0.4-0.4C63,40.3,63,40,63,39.8
	c-0.1-0.2-0.1-0.4-0.1-0.6c0-1.2,0.4-1.7,1.2-1.7c0.2,0,0.4,0.1,0.5,0.2c0.2,0.1,0.3,0.2,0.4,0.4c0.1,0.2,0.2,0.4,0.2,0.6
	c0.1,0.2,0.1,0.4,0.1,0.7C65.3,40.4,64.9,40.9,64.1,40.9z M59.6,39.1l0.4-0.3l1.4-1.8h-0.8l-1.4,1.9L58.8,39v-2h-0.7v4.5h0.7v-2h0.4
	l1.5,2h0.9l-1.5-2L59.6,39.1z M59.5,29.4c-0.1,0.2-0.3,0.3-0.5,0.3c-0.1,0-0.2-0.1-0.3-0.1s-0.3-0.1-0.4-0.2l-0.2,0.6
	c0.1,0.1,0.3,0.2,0.4,0.2c0.1,0.1,0.3,0.1,0.5,0.1s0.4-0.1,0.5-0.2s0.3-0.2,0.4-0.4c0.1-0.2,0.3-0.4,0.4-0.7
	c0.1-0.3,0.3-0.7,0.4-1.1l1.6-4.1h-0.8l-1.2,3.3l-0.2,0.9h-0.1L60,27.3L58.3,24h-0.9l2.3,4.7C59.7,29,59.6,29.2,59.5,29.4z
	 M85.1,26.2c-0.3-0.4-0.8-0.6-1.3-0.6c-0.3,0-0.6,0.1-0.8,0.2c-0.2,0.1-0.4,0.3-0.5,0.5h-0.1l-0.2-0.5h-0.5V32h0.7v-1.9
	c0.2,0.1,0.3,0.1,0.4,0.2c0.2,0.1,0.3,0.1,0.5,0.1c0.3,0,0.6-0.1,0.9-0.2c0.3-0.1,0.5-0.3,0.7-0.5c0.2-0.2,0.4-0.5,0.5-0.8
	c0.1-0.3,0.2-0.7,0.2-1C85.5,27.1,85.4,26.6,85.1,26.2z M84.4,29.3c-0.3,0.3-0.6,0.5-1,0.5c-0.2,0-0.5,0-0.6-0.1
	c-0.2-0.1-0.3-0.2-0.4-0.2v-2.2c0.1-0.3,0.2-0.6,0.4-0.7c0.2-0.2,0.5-0.3,0.8-0.3c0.2,0,0.4,0.1,0.5,0.2c0.2,0.1,0.3,0.2,0.4,0.3
	c0.1,0.2,0.2,0.4,0.2,0.5c0.1,0.2,0.1,0.4,0.1,0.7C84.7,28.5,84.6,29,84.4,29.3z M61.8,6.9h6v13.4h3.5V3.4H58.2v16.9h3.6V6.9z
	 M88.4,26.3c0.2,0,0.4,0.1,0.6,0.1c0.2,0.1,0.3,0.1,0.5,0.2l0.2-0.6c-0.2-0.1-0.4-0.2-0.6-0.2c-0.2-0.1-0.4-0.1-0.7-0.1
	c-0.6,0-1.1,0.2-1.5,0.6c-0.4,0.4-0.5,1-0.5,1.7c0,0.4,0,0.7,0.1,1c0.1,0.3,0.2,0.6,0.4,0.8s0.4,0.4,0.6,0.5
	c0.3,0.1,0.6,0.2,0.9,0.2c0.3,0,0.5,0,0.8-0.1c0.3-0.1,0.5-0.2,0.7-0.3l-0.3-0.5c-0.1,0.1-0.2,0.2-0.4,0.2c-0.2,0.1-0.4,0.1-0.6,0.1
	c-0.3,0-0.5-0.1-0.6-0.2s-0.4-0.3-0.5-0.4c-0.1-0.2-0.2-0.3-0.2-0.5c-0.1-0.2-0.1-0.5-0.1-0.7C87.2,26.9,87.6,26.3,88.4,26.3z
	 M135,20.3h3.6V6.9h4.6V3.4h-12.8v3.4h4.6V20.3z M158,16.9h-7.8v-3.5h6.7v-3.3h-6.7V6.9h7.8V3.4h-11.4v16.9H158V16.9z M83.1,3
	c-5.7,0-7.7,4.1-7.7,8.9c0,4.8,1.9,8.9,7.7,8.9c5.7,0,7.7-4.1,7.7-8.9C90.8,7.1,88.8,3,83.1,3z M83.1,17.3c-3.5,0-4.1-2.6-4.1-5.4
	c-0.1-2.8,0.5-5.4,4.1-5.4s4.1,2.6,4.1,5.4S86.6,17.3,83.1,17.3z M99.1,15.8c0.7-2.6,1.1-6.6,1.3-9h4.1v13.4h3.6V3.4H97.2
	c-0.5,3.8-0.6,8-1.6,11.6c-0.4,1.4-1.4,2-2.9,1.9v3.4C96,20.5,98.3,18.7,99.1,15.8z M66.5,30.3v-4.5h-0.7v1.9h-2v-1.9H63v4.5h0.7v-2
	h2v2H66.5z M91.8,28.5l-0.4,0.6h-0.1l0.1-0.6v-2.7h-0.7v4.5h0.4l2.1-2.6l0.4-0.6l0,0v0.6v2.6h0.7v-4.5h-0.4L91.8,28.5z M89,39.1
	l0.4-0.3l1.2-1.8h-0.8l-1.2,1.9L88.2,39v-2h-0.7v1.9H87L85.8,37H85l1.2,1.8l0.5,0.4l-0.3,0.3l-1.4,2h0.8l1.3-2l0.5-0.1v2.1h0.7v-2
	h0.5l1.4,2h0.8l-1.3-2L89,39.1z M94.9,26.4h1.4v3.9H97v-3.9h1.4v-0.6h-3.5V26.4z M67.6,38.9c-0.1,0.5-0.1,0.9-0.2,1.2
	c-0.1,0.3-0.2,0.5-0.3,0.6c-0.1,0.1-0.2,0.2-0.3,0.2s-0.2,0-0.3,0l-0.1,0.6c0.1,0.1,0.2,0.1,0.2,0.1c0.1,0,0.2,0,0.3,0
	c0.2,0,0.3-0.1,0.5-0.2c0.2-0.1,0.3-0.3,0.4-0.5c0.1-0.2,0.2-0.5,0.2-0.7c0.1-0.3,0.2-0.6,0.2-0.9c0.1-0.3,0.1-0.6,0.1-0.9
	c0-0.3,0.1-0.6,0.1-0.8h1.3v3.9h0.7V37h-2.6C67.7,37.8,67.6,38.4,67.6,38.9z M102.6,27.4c0-0.4-0.1-0.7-0.2-0.9
	c-0.1-0.3-0.3-0.5-0.4-0.6c-0.2-0.1-0.3-0.2-0.5-0.2c-0.2-0.1-0.4-0.1-0.6-0.1c-0.6,0-1.1,0.2-1.5,0.6c-0.4,0.4-0.5,1-0.5,1.7
	c0,0.4,0,0.7,0.1,1c0.1,0.3,0.2,0.6,0.4,0.8c0.2,0.2,0.4,0.4,0.6,0.5c0.3,0.1,0.6,0.2,0.9,0.2c0.3,0,0.6,0,0.9-0.1s0.5-0.2,0.7-0.4
	l-0.3-0.5c-0.1,0.1-0.3,0.2-0.5,0.3c-0.2,0.1-0.4,0.1-0.6,0.1c-0.3,0-0.5,0-0.7-0.1c-0.2-0.1-0.3-0.2-0.5-0.4
	c-0.1-0.2-0.2-0.3-0.3-0.5c-0.1-0.2-0.1-0.5-0.1-0.7h2.9C102.6,27.8,102.6,27.6,102.6,27.4z M99.7,27.5c0.1-0.5,0.2-0.8,0.4-0.9
	c0.2-0.2,0.5-0.3,0.9-0.3c0.3,0,0.6,0.2,0.8,0.3c0.2,0.2,0.3,0.5,0.3,0.9H99.7z M84.2,40.9V37h-0.2h-2.7c0,0.7-0.1,1.2-0.1,1.6
	c-0.1,0.5-0.2,0.9-0.2,1.2c-0.1,0.3-0.2,0.6-0.2,0.7c-0.1,0.2-0.2,0.3-0.2,0.4h-0.5v1.8h0.5l0.2-1.2h3.3l0.2,1.2h0.5v-1.8H84.2z
	 M83.4,40.9h-2c0.1-0.2,0.2-0.4,0.3-0.7c0.1-0.3,0.2-0.6,0.2-0.9c0.1-0.3,0.1-0.6,0.1-0.9c0.1-0.3,0.1-0.6,0.1-0.9h1.3V40.9z
	 M72.1,38.9c-0.1,0.5-0.1,0.9-0.2,1.2c-0.1,0.3-0.2,0.5-0.3,0.6c-0.1,0.1-0.2,0.2-0.3,0.2c-0.1,0-0.2,0-0.3,0L71,41.4
	c0.1,0.1,0.2,0.1,0.2,0.1c0.1,0,0.2,0,0.3,0c0.2,0,0.4-0.1,0.5-0.2c0.2-0.1,0.2-0.3,0.3-0.5s0.2-0.5,0.2-0.7
	c0.1-0.3,0.2-0.6,0.2-0.9c0.1-0.3,0.1-0.6,0.1-0.9c0-0.3,0.1-0.6,0.1-0.8h1.3v3.9h0.7V37h-2.6C72.2,37.8,72.1,38.4,72.1,38.9z
	 M70.6,30.3h0.8v-4.5h-0.5l-2,2.7l-0.4,0.6h-0.1v-0.6v-2.7h-0.7v4.5h0.5l2-2.6l0.4-0.6h0.1l-0.1,0.6V30.3z M79.7,38.6
	c0-0.4-0.1-0.7-0.2-0.9c-0.2-0.3-0.3-0.5-0.5-0.6c-0.2-0.1-0.4-0.2-0.6-0.3c-0.2-0.1-0.4-0.1-0.6-0.1c-0.6,0-1.1,0.2-1.5,0.6
	c-0.4,0.4-0.5,1-0.5,1.8c0,0.4,0.1,0.7,0.2,0.9c0.1,0.3,0.2,0.6,0.4,0.8c0.2,0.2,0.4,0.4,0.6,0.5c0.3,0.1,0.6,0.2,0.9,0.2
	c0.3,0,0.6-0.1,0.9-0.2c0.3-0.1,0.5-0.2,0.7-0.4l-0.3-0.5c-0.1,0.1-0.3,0.2-0.5,0.3c-0.2,0.1-0.4,0.1-0.6,0.1c-0.3,0-0.5,0-0.7-0.1
	c-0.2-0.1-0.3-0.2-0.5-0.3c-0.1-0.2-0.2-0.3-0.2-0.5c-0.1-0.2-0.1-0.5-0.1-0.7h2.9C79.7,39,79.7,38.8,79.7,38.6z M76.7,38.7
	c0.1-0.5,0.2-0.8,0.4-0.9c0.2-0.2,0.5-0.3,0.9-0.3c0.3,0,0.6,0.1,0.7,0.3c0.2,0.2,0.3,0.5,0.3,0.9H76.7z M80.7,27.4
	c0-0.4-0.1-0.7-0.2-0.9c-0.1-0.3-0.3-0.5-0.4-0.6c-0.2-0.1-0.3-0.2-0.5-0.2c-0.2-0.1-0.4-0.1-0.6-0.1c-0.6,0-1.1,0.2-1.5,0.6
	c-0.4,0.4-0.5,1-0.5,1.7c0,0.4,0.1,0.7,0.2,1c0.1,0.3,0.2,0.6,0.4,0.8c0.2,0.2,0.4,0.4,0.6,0.5c0.3,0.1,0.6,0.2,0.9,0.2
	c0.3,0,0.6,0,0.9-0.1c0.3-0.1,0.5-0.2,0.7-0.4l-0.3-0.6c-0.1,0.1-0.3,0.2-0.5,0.3c-0.2,0.1-0.4,0.1-0.6,0.1c-0.3,0-0.5,0-0.7-0.1
	c-0.2-0.1-0.3-0.2-0.5-0.4c-0.1-0.2-0.2-0.3-0.3-0.5c-0.1-0.2-0.1-0.5-0.1-0.7h2.9C80.7,27.8,80.7,27.6,80.7,27.4z M77.7,27.5
	c0.1-0.5,0.2-0.8,0.4-0.9c0.2-0.2,0.5-0.3,0.9-0.3c0.3,0,0.6,0.2,0.8,0.3c0.2,0.2,0.3,0.5,0.3,0.9H77.7z M75.9,28.3
	c-0.2-0.2-0.4-0.3-0.8-0.4v-0.1c0.3-0.1,0.5-0.3,0.6-0.5c0.1-0.2,0.2-0.4,0.2-0.6c0-0.4-0.2-0.7-0.4-0.9c-0.3-0.2-0.7-0.3-1.3-0.3
	c-0.4,0-0.6,0.1-0.9,0.1s-0.5,0.1-0.7,0.1v4.5c0.2,0,0.4,0.1,0.6,0.1c0.2,0,0.5,0,0.7,0c0.7,0,1.2-0.1,1.5-0.3
	c0.4-0.2,0.5-0.6,0.5-1C76.2,28.7,76.1,28.4,75.9,28.3z M73.8,26.4c0.1,0,0.3-0.1,0.5-0.1c0.4,0,0.6,0.1,0.8,0.2
	c0.2,0.1,0.2,0.3,0.2,0.5c0,0.1-0.1,0.2-0.1,0.3c-0.1,0.1-0.2,0.2-0.2,0.2c-0.1,0.1-0.2,0.1-0.3,0.2c-0.1,0.1-0.2,0.1-0.3,0.1h-0.9
	v-1.3C73.6,26.4,73.7,26.4,73.8,26.4z M75.1,29.5c-0.2,0.1-0.5,0.2-0.9,0.2c-0.2,0-0.3,0-0.4,0c-0.1,0-0.3-0.1-0.4-0.1v-1.4h0.8
	c0.4,0,0.7,0.1,0.9,0.2c0.2,0.2,0.2,0.3,0.2,0.5C75.4,29.2,75.3,29.4,75.1,29.5z"/>
<path id="symbol" class="st1" d="M41.1,0.7c-1.3-0.1-5.6-0.7-15.9-0.7S10.6,0.6,9.2,0.7C3.6,1.8,1.8,5.3,1.4,8.8
	C1.3,10.2,0.6,17,0.6,25s0.7,14.8,0.9,16.3c0.8,6.1,5.4,7.7,7.8,8c1.3,0.1,5.6,0.7,15.9,0.7s14.6-0.6,15.9-0.7
	c3.2-0.3,7.1-3.2,7.8-8c0.2-1.4,0.9-8.1,0.9-16.3c0-8-0.8-14.8-0.9-16.2C48.5,5.1,46.2,1.3,41.1,0.7z M47.3,16.2
	c-0.4-0.8-0.9-1.5-1.3-2.2c-2-2.9-4.5-5.5-7.2-7.5c2.9,0.7,5.6,1.8,8.1,3.3C46.9,10.1,47.1,12.5,47.3,16.2z M25.2,2.2
	c10.4,0,17.5,0.1,19.5,2.6c0.7,0.8,1.3,1.7,1.7,2.6c-3.9-2.2-8.7-3.2-15.5-3.3C21.2,4.1,12.3,9,6.5,16.9c-0.4,0.5-0.7,1-1,1.4
	c1.1-6.2,4.1-11.7,8.4-15.9C16.2,2.4,19.9,2.2,25.2,2.2z M38.7,17.8c1.7,2.2,3.1,4.8,4.1,7.4c-0.5,2.3-1.2,4.6-2.2,6.7
	c-0.4,0.7-0.7,1.4-1.1,2.1c0.5-2.1,0.7-4.6,0.7-6.5C40.2,24.1,39.7,20.8,38.7,17.8z M38.7,26.1c-2-7.8-5.9-12.6-10.4-16.3
	c-0.7-0.5-1.4-1.1-1.9-1.5c0.4,0.2,0.8,0.3,1.2,0.5c3.2,1.5,6.1,3.5,8.5,5.9C38,18.4,38.6,22.6,38.7,26.1z M38.3,32.7
	c-0.3,1.8-0.8,3.6-1.4,5.3C36,39,35.1,40,34.1,41c1.2-3.3,1.9-6.9,1.9-10.6c0-4.8-1.1-9.3-2.9-13.4c1.9,2.7,3.3,5.8,4.3,9.1
	C37.9,28.3,38.2,30.5,38.3,32.7z M34.6,30.3C35.1,38,29.8,43.5,23.6,43c-8.9-0.7-11.9-7.1-10.6-16.6c0.7-5.8,4.6-14.9,10.5-18.2
	C29.7,11.6,33.9,20.8,34.6,30.3z M33,40.1c-0.4,1-0.8,2-1.2,2.9c-1.1,0.8-2.2,1.5-3.3,2.2c-4.6,0.1-9.1-0.9-13.4-2.9
	c-0.3-0.8-0.6-1.6-0.9-2.3c2.2,2.7,5.7,4.5,9.5,4.5C27.3,44.5,30.7,42.7,33,40.1z M22.6,7.1c-6,3.6-10.7,9.3-13.2,16.3
	c0.7-4.3,2.1-8.3,4.4-11.8C16.6,9.6,19,8.1,22.6,7.1L22.6,7.1C22.5,7,22.5,7.1,22.6,7.1z M7.8,23.9c-0.7,5.3,0.1,10.5,1.9,15.1
	c-0.2-0.2-0.5-0.4-0.7-0.5c-2.5-4.4-4-9.5-4-14.9c0-0.6,0-1.1,0.1-1.7c0.7-1.4,1.6-2.8,2.6-4.1c0.9-1.3,1.9-2.4,2.9-3.5
	C9.2,17.3,8.2,20.5,7.8,23.9z M9.1,30.6c0.6-5.6,2-9.2,5.8-14.8c-1.7,3.1-2.9,6.7-3.4,10.4c-0.8,5.3-0.2,10.4,1.6,15.1
	c-0.4-0.2-0.8-0.5-1.2-0.7C10.5,37.5,9.5,34.2,9.1,30.6z M9.6,47.2c-1.1-0.1-2.7-0.8-4-2c-1.2-1.3-2-3.1-2.1-4.4
	c0,0-0.9-8.1-0.9-15.9c0-7.9,0.9-15.8,0.9-15.8C3.6,8,4.4,6.1,5.6,4.8s2.8-1.9,4.9-2h0.1h0.1c0,0,0.5-0.1,1.2-0.2
	c-4.6,4.8-7.8,10.9-8.3,21c0,9.6,4.4,18.2,11.2,24C11.4,47.4,9.6,47.2,9.6,47.2z M43,46.3c-0.9,0.5-2,0.8-3.2,0.9h-0.1h-0.1
	c0,0-4.1,0.6-14.5,0.6c-3.1,0-5.6-0.1-7.8-0.2C15.1,46,13,44,11.3,41.8c9.3,5.8,20.7,6.4,30.6,1.5c0.8-0.4,1.6-0.8,2.3-1.3
	C43.9,43.5,43.5,45,43,46.3z M44.5,40.1c-1,0.7-2.1,1.3-3.3,1.9c-3.2,1.6-6.5,2.6-9.9,3c5.8-3.7,11-11.6,12.3-17.3
	c0.5,1.8,0.9,3.6,1,5.5C44.9,35.6,44.8,37.9,44.5,40.1z M46.8,40.9C46.7,42,46,43.5,45,44.8c1.1-3.9,1.5-7.8,1.1-11.8
	c-0.9-10.2-6.2-20.1-18-25.5c-1-0.5-2.1-0.9-3.1-1.2c2.3-0.4,4.6-0.7,6.7-0.7c1.3,0,2.5,0.1,3.6,0.2C39,8,42.2,11,44.8,14.7
	c1.1,1.6,2,3.2,2.7,4.9c0.1,1.8,0.2,3.5,0.2,5.4C47.6,33.1,46.8,40.9,46.8,40.9z"/>
<path id="small" class="st0" d="M71.8,22.6l1,4.5h0.3l0.8-4.7l5.2-15.2h7l-9.2,24.1c-0.7,1.9-1.4,3.5-2.1,4.9
	c-0.7,1.4-1.4,2.5-2.2,3.5c-0.8,0.9-1.6,1.6-2.6,2c-1,0.4-2.1,0.7-3.4,0.7c-1.1,0-2-0.1-2.7-0.2c-0.7-0.1-1.4-0.5-2.2-1l1.7-5.5
	c0.6,0.3,1.1,0.5,1.5,0.5c0.5,0.1,1,0.1,1.5,0.1c1.6,0,2.7-1.2,3.3-3.7l-13-25.4h8L71.8,22.6z M107.4,13.3H95.2V42h-6.8V7.2h25.8V42
	h-6.8V13.3z M128.8,27.1H127V42h-6.8V7.2h6.8v15.4l1.6-0.7l9.6-14.7h7.8l-10.1,14.6l-2.7,1.9l2.8,1.9L147.5,42h-8.4L128.8,27.1z"/>
</svg>
